<?xml version="1.0" standalone="no"?>
<!DOCTYPE svg PUBLIC "-//W3C//DTD SVG 20010904//EN"
 "http://www.w3.org/TR/2001/REC-SVG-20010904/DTD/svg10.dtd">
<svg version="1.0" xmlns="http://www.w3.org/2000/svg"
 width="700.000000pt" height="700.000000pt" viewBox="0 0 700.000000 700.000000"
 preserveAspectRatio="xMidYMid meet">
<metadata>
Created by potrace 1.14, written by Peter Selinger 2001-2017
</metadata>
<g transform="translate(0.000000,700.000000) scale(0.100000,-0.100000)"
fill="#000000" stroke="none">
<path d="M1117 6414 c-1 -1 -24 -4 -52 -8 -105 -12 -238 -85 -328 -180 -58
-62 -123 -188 -141 -276 -10 -52 -12 -287 -11 -1165 2 -1084 2 -1101 22 -1156
61 -164 -30 -67 1445 -1544 753 -753 1390 -1384 1416 -1401 190 -124 427 -130
620 -16 55 33 261 234 1131 1103 585 585 1076 1082 1092 1105 15 23 39 65 52
95 23 50 29 71 45 139 3 14 5 63 5 110 -1 123 -38 236 -107 330 -31 41 -2737
2750 -2747 2750 -4 0 -14 6 -21 14 -30 30 -149 80 -221 93 -28 5 -2194 12
-2200 7z m963 -917 c159 -77 251 -221 251 -391 0 -291 -283 -504 -558 -420
-122 38 -213 116 -271 234 -35 71 -37 80 -37 175 0 109 3 121 39 200 45 98
136 179 248 221 52 19 79 22 158 20 87 -2 102 -5 170 -39z m2075 -1487 c437
-437 795 -798 795 -802 0 -4 -91 -98 -201 -209 l-202 -201 -798 798 c-440 440
-799 801 -799 805 0 7 402 410 406 407 2 -2 361 -361 799 -798z m-928 -529
l564 -565 -205 -205 -206 -206 -580 580 c-319 319 -580 583 -580 586 0 3 91
96 202 207 196 197 202 202 221 185 11 -10 273 -272 584 -582z"/>
</g>
</svg>
